<?xml version="1.0" standalone="no"?>
<!DOCTYPE svg PUBLIC "-//W3C//DTD SVG 20010904//EN"
 "http://www.w3.org/TR/2001/REC-SVG-20010904/DTD/svg10.dtd">
<svg version="1.0" xmlns="http://www.w3.org/2000/svg"
 width="183.000000pt" height="183.000000pt" viewBox="0 0 183.000000 183.000000"
 preserveAspectRatio="xMidYMid meet">
<metadata>
Created by potrace 1.14, written by Peter Selinger 2001-2017
</metadata>
<g transform="translate(0.000000,183.000000) scale(0.100000,-0.100000)"
fill="#000000" stroke="none">
<path d="M775 1456 c-237 -55 -412 -212 -491 -441 -25 -71 -28 -94 -28 -205 0
-111 3 -134 28 -205 71 -205 216 -350 421 -421 71 -25 94 -28 205 -28 111 0
134 3 205 28 205 71 350 216 421 421 25 71 28 94 28 205 0 111 -3 134 -28 205
-93 269 -322 441 -601 451 -63 2 -122 -1 -160 -10z m315 -431 l0 -45 -40 0
-40 0 0 -175 0 -175 40 0 40 0 0 -45 0 -45 -135 0 -135 0 0 45 0 45 45 0 45 0
0 135 0 135 -46 0 -45 0 3 43 3 42 93 3 92 3 0 39 c0 40 0 40 40 40 l40 0 0
-45z m-445 -57 c51 -27 67 -52 67 -105 0 -41 -5 -51 -33 -77 -21 -19 -29 -31
-21 -34 67 -22 73 -139 9 -186 -26 -19 -45 -21 -188 -24 l-159 -3 0 45 0 46
45 0 46 0 -3 133 -3 132 -42 3 c-42 3 -43 4 -43 41 0 21 3 41 8 45 14 15 284
1 317 -16z m853 -25 l3 -43 -65 0 -66 0 0 -180 0 -180 -50 0 -50 0 0 180 0
180 -65 0 -65 0 0 38 c0 21 3 42 7 46 4 3 84 5 177 4 l171 -3 3 -42z"/>
<path d="M507 894 c-4 -4 -7 -25 -7 -46 l0 -38 61 0 60 0 -3 43 -3 42 -50 3
c-28 2 -54 0 -58 -4z"/>
<path d="M500 675 l0 -45 61 0 60 0 -3 43 -3 42 -57 3 -58 3 0 -46z"/>
</g>
</svg>
